<svg width="25" height="25" viewBox="0 0 25 25" fill="none" xmlns="http://www.w3.org/2000/svg">
<g clip-path="url(#clip0_3080_223)">
<path d="M12.4286 1.76172L12.5723 2.25114V16.4519L12.4286 16.5957L5.85777 12.6992L12.4286 1.76172Z" fill="#343434"/>
<path d="M12.429 1.76172L19 12.6992L12.429 16.5957V9.703V1.76172Z" fill="#8C8C8C"/>
<path d="M12.4288 17.8436L12.5098 17.9426V23.0012L12.4288 23.2382L5.85393 13.9492L12.4288 17.8436Z" fill="#3C3C3B"/>
<path d="M12.429 23.2382V17.8436L19 13.9492L12.429 23.2382Z" fill="#8C8C8C"/>
<path d="M12.4297 16.5958L5.85883 12.6994L12.4297 9.70312V16.5958Z" fill="#141414"/>
<path d="M19 12.6994L12.429 16.5958V9.70312L19 12.6994Z" fill="#393939"/>
</g>
<defs>
<clipPath id="clip0_3080_223">
<rect width="13.1459" height="21.4767" fill="white" transform="matrix(-1 0 0 1 19 1.76172)"/>
</clipPath>
</defs>
</svg>
