<svg width="388" height="100" viewBox="0 0 388 100" fill="none" xmlns="http://www.w3.org/2000/svg">
<mask id="mask0_506_3" style="mask-type:luminance" maskUnits="userSpaceOnUse" x="0" y="0" width="100" height="100">
<path d="M100 0H0V100H100V0Z" fill="white"/>
</mask>
<g mask="url(#mask0_506_3)">
<path d="M50.4003 0.500347C22.8003 0.300347 0.300347 22.8003 0.500347 50.4003C0.700347 77.3003 22.7003 99.2003 49.6003 99.5003C77.3003 99.7003 99.8003 77.2003 99.5003 49.6003C99.3003 22.7003 77.3003 0.700347 50.4003 0.500347Z" fill="#2081E2"/>
<path d="M35.6002 25.8994C38.7002 29.7994 40.5002 34.6994 40.5002 40.0994C40.5002 44.6994 39.1002 48.9994 36.8002 52.5994H20.2002L35.6002 25.8994Z" fill="white"/>
<path d="M86.3003 58.4998C86.3003 58.6998 86.2003 58.8998 86.0003 58.9998C84.9003 59.4998 81.2003 61.1998 79.6003 63.3998C75.6003 68.8998 72.6003 77.6998 65.8003 77.6998H37.3003C27.2003 77.6998 18.8003 69.6998 18.9003 59.0998C18.9003 58.7998 19.1003 58.5998 19.4003 58.5998H32.8003C33.3003 58.5998 33.6003 58.9998 33.6003 59.3998V61.9998C33.6003 63.3998 34.7003 64.4998 36.1003 64.4998H46.3003V58.5998H39.3003C43.3003 53.4998 45.7003 47.0998 45.7003 40.0998C45.7003 32.2998 42.7003 25.1998 37.8003 19.8998C40.8003 20.1998 43.6003 20.7998 46.2003 21.5998V19.8998C46.2003 18.1998 47.6003 16.7998 49.3003 16.7998C51.0003 16.7998 52.4003 18.1998 52.4003 19.8998V23.8998C61.9003 28.2998 68.2003 35.6998 68.2003 44.0998C68.2003 48.9998 66.1003 53.5998 62.4003 57.3998C61.7003 58.0998 60.7003 58.4998 59.7003 58.4998H52.5003V64.3998H61.5003C63.4003 64.3998 66.9003 60.6998 68.6003 58.4998C68.6003 58.4998 68.7003 58.3998 68.9003 58.2998C69.1003 58.1998 85.5003 54.4998 85.5003 54.4998C85.8003 54.3998 86.2003 54.6998 86.2003 54.9998L86.3003 58.4998Z" fill="white"/>
</g>
<path d="M136.461 82V26.6364H146.49V73.5927H170.874V82H136.461ZM197.528 82.811C193.365 82.811 189.77 81.9459 186.742 80.2158C183.732 78.4677 181.417 75.9987 179.795 72.8088C178.173 69.6009 177.362 65.8252 177.362 61.4819C177.362 57.2107 178.173 53.4621 179.795 50.2362C181.435 46.9922 183.723 44.4691 186.661 42.6669C189.599 40.8467 193.05 39.9366 197.015 39.9366C199.574 39.9366 201.989 40.3511 204.26 41.1801C206.548 41.9911 208.567 43.2527 210.315 44.9648C212.081 46.6768 213.469 48.8575 214.478 51.5067C215.487 54.138 215.992 57.2738 215.992 60.9142V63.9149H181.957V57.3188H206.611C206.593 55.4446 206.188 53.7775 205.395 52.3177C204.602 50.8399 203.494 49.6775 202.07 48.8305C200.664 47.9834 199.024 47.5599 197.15 47.5599C195.149 47.5599 193.392 48.0465 191.878 49.0197C190.365 49.9749 189.184 51.2364 188.337 52.8043C187.508 54.3542 187.085 56.0573 187.066 57.9136V63.6716C187.066 66.0866 187.508 68.1591 188.391 69.8892C189.274 71.6013 190.509 72.9169 192.095 73.836C193.681 74.7371 195.537 75.1877 197.663 75.1877C199.087 75.1877 200.376 74.9894 201.529 74.593C202.683 74.1784 203.683 73.5747 204.53 72.7817C205.377 71.9888 206.017 71.0066 206.449 69.8351L215.586 70.8624C215.01 73.2773 213.91 75.3859 212.288 77.1881C210.684 78.9723 208.63 80.36 206.125 81.3512C203.62 82.3244 200.754 82.811 197.528 82.811ZM236.219 82.838C233.588 82.838 231.218 82.3695 229.11 81.4323C227.019 80.4771 225.361 79.0714 224.136 77.2152C222.928 75.3589 222.324 73.0701 222.324 70.3488C222.324 68.0059 222.757 66.0685 223.622 64.5367C224.487 63.0048 225.667 61.7793 227.163 60.8602C228.659 59.9411 230.344 59.2472 232.218 58.7786C234.111 58.292 236.066 57.9406 238.085 57.7243C240.518 57.472 242.491 57.2468 244.005 57.0485C245.519 56.8323 246.618 56.5079 247.303 56.0753C248.006 55.6248 248.357 54.9309 248.357 53.9938V53.8316C248.357 51.7951 247.753 50.2182 246.546 49.1008C245.338 47.9834 243.599 47.4248 241.329 47.4248C238.932 47.4248 237.03 47.9474 235.625 48.9927C234.237 50.038 233.3 51.2725 232.813 52.6962L223.676 51.3986C224.397 48.8755 225.586 46.767 227.244 45.0729C228.902 43.3608 230.93 42.0812 233.327 41.2342C235.724 40.3691 238.373 39.9366 241.274 39.9366C243.275 39.9366 245.266 40.1709 247.249 40.6395C249.231 41.108 251.042 41.883 252.682 42.9643C254.322 44.0276 255.638 45.4784 256.629 47.3166C257.638 49.1549 258.143 51.4527 258.143 54.21V82H248.736V76.296H248.411C247.816 77.4494 246.978 78.5308 245.897 79.54C244.834 80.5312 243.491 81.3332 241.869 81.9459C240.265 82.5407 238.382 82.838 236.219 82.838ZM238.76 75.6472C240.725 75.6472 242.428 75.2598 243.87 74.4848C245.311 73.6918 246.42 72.6466 247.195 71.349C247.988 70.0514 248.384 68.6367 248.384 67.1048V62.2118C248.078 62.4641 247.555 62.6984 246.816 62.9147C246.095 63.1309 245.284 63.3202 244.383 63.4824C243.482 63.6446 242.59 63.7888 241.707 63.9149C240.824 64.0411 240.058 64.1492 239.409 64.2393C237.949 64.4375 236.643 64.7619 235.489 65.2125C234.336 65.663 233.426 66.2938 232.759 67.1048C232.092 67.8978 231.759 68.925 231.759 70.1866C231.759 71.9888 232.417 73.3494 233.732 74.2686C235.048 75.1877 236.724 75.6472 238.76 75.6472ZM267.983 82V40.4773H277.472V47.3977H277.904C278.661 45.0008 279.959 43.1535 281.797 41.856C283.653 40.5403 285.771 39.8825 288.15 39.8825C288.69 39.8825 289.294 39.9096 289.961 39.9636C290.646 39.9997 291.213 40.0628 291.664 40.1529V49.1549C291.25 49.0107 290.592 48.8845 289.691 48.7764C288.808 48.6503 287.951 48.5872 287.122 48.5872C285.338 48.5872 283.734 48.9747 282.311 49.7496C280.905 50.5065 279.797 51.5608 278.986 52.9125C278.175 54.2641 277.769 55.823 277.769 57.5892V82H267.983ZM307.951 57.6703V82H298.165V40.4773H307.519V47.5329H308.005C308.961 45.2081 310.484 43.3608 312.574 41.9911C314.683 40.6214 317.287 39.9366 320.387 39.9366C323.252 39.9366 325.748 40.5494 327.875 41.7749C330.019 43.0004 331.677 44.7755 332.849 47.1004C334.038 49.4252 334.624 52.2456 334.606 55.5617V82H324.82V57.0755C324.82 54.3002 324.099 52.1285 322.657 50.5606C321.234 48.9927 319.26 48.2087 316.737 48.2087C315.025 48.2087 313.502 48.5872 312.169 49.3441C310.853 50.083 309.817 51.1553 309.06 52.561C308.321 53.9668 307.951 55.6698 307.951 57.6703Z" fill="black"/>
</svg>
