<svg width="215" height="50" viewBox="0 0 215 50" fill="none" xmlns="http://www.w3.org/2000/svg">
<g clip-path="url(#clip0_3393_208)">
<path fill-rule="evenodd" clip-rule="evenodd" d="M55.2083 1.59489L59.2884 0.378906V26.382H55.2083V24.9549C53.2613 26.3706 50.8596 27.0167 48.4651 26.7689C46.2394 26.5327 44.16 25.5473 42.5678 23.9742C40.9756 22.4012 39.9651 20.3339 39.7019 18.1112C39.6621 17.7475 39.642 17.3818 39.6416 17.0158V16.9505C39.6424 16.6248 39.6608 16.2994 39.6969 15.9757C39.7013 15.9252 39.7114 15.8757 39.7215 15.8267C39.7344 15.7636 39.7472 15.7013 39.7472 15.6391C39.7773 15.4129 39.8075 15.1919 39.8577 14.9708C39.8753 14.8794 39.8904 14.8225 39.9151 14.7295C39.9257 14.6895 39.9381 14.6427 39.9532 14.5839C40.0034 14.3879 40.0687 14.1367 40.114 14.001C40.145 13.9079 40.1713 13.8384 40.2059 13.7472C40.2216 13.7056 40.2393 13.659 40.2597 13.604C40.3119 13.4635 40.3801 13.2974 40.4336 13.167L40.4707 13.0764C40.4996 13.0055 40.5272 12.951 40.5584 12.8893C40.5868 12.833 40.6183 12.7708 40.6566 12.6845C40.7277 12.5246 40.8184 12.3569 40.8871 12.2299L40.9129 12.182C40.9832 12.0514 41.0435 11.9559 41.139 11.8052C41.2345 11.6544 41.3501 11.4735 41.4355 11.3529C41.5209 11.2324 41.5862 11.1419 41.6968 11.0012C41.8073 10.8605 41.943 10.6947 42.0384 10.5842C42.1339 10.4736 42.2344 10.3631 42.3349 10.2576C42.4555 10.1269 42.5811 10.0013 42.7118 9.88069L43.0384 9.58423L43.4554 9.24255L43.8072 8.98126C43.9212 8.89866 44.0569 8.81297 44.1707 8.74108C44.2022 8.72114 44.2321 8.70226 44.2594 8.6848L44.3128 8.65044C44.4108 8.58722 44.4908 8.53569 44.6362 8.45869C44.807 8.36827 45.008 8.2678 45.1386 8.20248C45.2691 8.1372 45.3599 8.09185 45.5306 8.01651C45.6445 7.96627 45.7629 7.92049 45.8812 7.87471C45.9402 7.85186 45.9997 7.82888 46.0582 7.80547L46.4552 7.65976C46.5882 7.61777 46.7552 7.57578 46.8885 7.54227C46.9467 7.52767 46.9984 7.51467 47.0381 7.50399C47.0802 7.49265 47.1217 7.47819 47.1631 7.46378C47.2502 7.4335 47.3364 7.4035 47.425 7.4035C47.6461 7.35827 47.8722 7.3231 48.0933 7.29295C48.1366 7.2873 48.1792 7.27882 48.2214 7.27043C48.2917 7.25645 48.3608 7.2427 48.4299 7.2427C48.7754 7.20649 49.1226 7.18804 49.47 7.18743C51.532 7.18531 53.5413 7.83808 55.2083 9.05161V1.59489ZM53.7189 20.8606C54.6672 19.8153 55.1974 18.4573 55.2083 17.046L55.1982 16.9606C55.1876 15.4452 54.5786 13.9954 53.5037 12.9272C52.4289 11.8589 50.9754 11.2588 49.46 11.2575C49.25 11.2582 49.0403 11.2716 48.8319 11.2977L48.6359 11.3278C48.4952 11.3479 48.3596 11.368 48.2239 11.3982L47.9978 11.4534C47.961 11.4642 47.9243 11.4744 47.8877 11.4846C47.8042 11.5078 47.7213 11.531 47.641 11.559L47.4099 11.6444C47.2993 11.6846 47.1888 11.7298 47.0833 11.7801L46.8572 11.8856L46.5456 12.0614L46.3396 12.182L46.0432 12.3931L45.8623 12.5287C45.7837 12.5923 45.708 12.6615 45.6329 12.73L45.593 12.7664L45.5558 12.8001L45.4201 12.9207C45.2844 13.0563 45.1488 13.2021 45.0231 13.3528L44.9829 13.4131C44.8736 13.5467 44.7712 13.6859 44.6764 13.8301C44.6554 13.859 44.6468 13.8742 44.6333 13.8978C44.6209 13.9195 44.6045 13.9482 44.5709 14.001C44.5006 14.1115 44.4101 14.2774 44.3749 14.3427C44.3562 14.3775 44.3446 14.4023 44.3295 14.4346C44.3163 14.4629 44.3003 14.4971 44.2745 14.5487C44.2192 14.6592 44.1539 14.81 44.1237 14.8853C44.1026 14.938 44.0914 14.971 44.0728 15.0255C44.0648 15.0489 44.0554 15.0768 44.0433 15.1115C44.0031 15.227 43.9529 15.3778 43.9328 15.4582L43.8725 15.6994C43.8601 15.7489 43.8528 15.8053 43.8457 15.8601C43.8355 15.9386 43.8258 16.0138 43.8021 16.0611C43.7802 16.105 43.7792 16.1355 43.7779 16.1753C43.7769 16.2084 43.7756 16.2481 43.7619 16.3073C43.7318 16.438 43.7318 16.6189 43.7318 16.6993V16.9354C43.7244 17.3743 43.7666 17.8125 43.8574 18.2419C44.1622 19.62 44.9637 20.8376 46.109 21.6623C47.2544 22.4871 48.6633 22.8612 50.0669 22.7134C51.4706 22.5655 52.7706 21.9059 53.7189 20.8606ZM194.263 43.3455V34.4416H198.881V30.5876H194.278V25.377L190.258 26.5679V30.5876H186.846V34.4416H190.258V43.3455C190.258 48.1692 192.705 49.8726 198.866 49.134V45.5362C195.821 45.682 194.263 45.7171 194.263 43.3455ZM215 45.4006H205.82L214.97 34.3763H214.98V30.6479H200.855V34.3763H209.98L200.86 45.4006H200.855V49.1289H215V45.4006ZM15.558 7.78035V9.05161C14.018 7.93735 12.1875 7.29456 10.289 7.2014C8.39045 7.10825 6.50577 7.56876 4.86414 8.52691C3.2225 9.48507 1.89464 10.8996 1.04204 12.5985C0.189445 14.2973 -0.151147 16.2073 0.0616846 18.0962C0.250503 19.8009 0.883284 21.4263 1.89683 22.81C2.91038 24.1937 4.26922 25.2872 5.83764 25.9814C7.40606 26.6756 9.12917 26.9461 10.8349 26.766C12.5406 26.5859 14.1692 25.9614 15.558 24.9549V26.382H19.6381V7.7904L15.558 7.78035ZM15.558 17.046C15.5467 18.5668 14.9332 20.0211 13.8518 21.0905C12.7704 22.1599 11.3093 22.7572 9.78849 22.7515C8.26765 22.7459 6.81103 22.1378 5.73763 21.0604C4.66423 19.983 4.06154 18.5241 4.06154 17.0033C4.06154 15.4824 4.66423 14.0236 5.73763 12.9462C6.81103 11.8688 8.26765 11.2607 9.78849 11.255C11.3093 11.2494 12.7704 11.8466 13.8518 12.916C14.9332 13.9854 15.5467 15.4398 15.558 16.9606V17.046ZM104.876 34.4088C103.805 36.0254 103.237 37.9237 103.245 39.8634C103.235 41.1508 103.483 42.4273 103.972 43.618C104.462 44.8088 105.184 45.8901 106.096 46.7986C107.008 47.7072 108.093 48.4247 109.285 48.9094C110.478 49.3941 111.756 49.6361 113.043 49.6214C114.983 49.6214 116.879 49.0457 118.491 47.9673C120.103 46.8888 121.359 45.3562 122.099 43.5634C122.84 41.7707 123.031 39.7985 122.65 37.8968C122.269 35.995 121.331 34.2492 119.957 32.8805C118.583 31.5118 116.833 30.5818 114.93 30.2083C113.026 29.8348 111.055 30.0346 109.265 30.7823C107.476 31.5301 105.948 32.7922 104.876 34.4088ZM117.809 36.6682C118.454 37.6102 118.807 38.7218 118.821 39.8634H118.831C118.855 40.6342 118.721 41.4017 118.439 42.1194C118.157 42.837 117.731 43.4898 117.189 44.0382C116.647 44.5865 115.999 45.019 115.284 45.3094C114.57 45.5997 113.804 45.7419 113.033 45.7272C111.891 45.7271 110.775 45.3895 109.825 44.7567C108.875 44.1239 108.133 43.2243 107.693 42.1709C107.252 41.1176 107.133 39.9576 107.351 38.8369C107.568 37.7161 108.112 36.6846 108.914 35.8722C109.716 35.0597 110.74 34.5026 111.858 34.2708C112.976 34.039 114.137 34.1429 115.196 34.5695C116.255 34.9961 117.164 35.7263 117.809 36.6682ZM134.117 30.2359V34.5773C131.479 34.3914 128.399 35.6174 128.399 39.7729V49.1189H124.379V30.5876H128.399V33.708C129.499 31.1856 131.775 30.2359 134.117 30.2359ZM135.653 34.4088C134.581 36.0254 134.013 37.9237 134.021 39.8634C134.012 41.1508 134.259 42.4273 134.749 43.618C135.238 44.8088 135.96 45.8901 136.873 46.7986C137.785 47.7072 138.869 48.4247 140.062 48.9094C141.255 49.3941 142.532 49.6361 143.82 49.6214C145.759 49.6214 147.655 49.0457 149.267 47.9673C150.88 46.8888 152.135 45.3562 152.876 43.5634C153.616 41.7707 153.808 39.7985 153.426 37.8968C153.045 35.995 152.108 34.2492 150.734 32.8805C149.359 31.5118 147.61 30.5818 145.706 30.2083C143.803 29.8348 141.832 30.0346 140.042 30.7823C138.252 31.5301 136.725 32.7922 135.653 34.4088ZM148.586 36.6682C149.231 37.6102 149.583 38.7218 149.598 39.8634C149.621 40.6331 149.487 41.3995 149.205 42.1162C148.923 42.8328 148.499 43.4848 147.958 44.0329C147.416 44.581 146.77 45.0137 146.057 45.3049C145.344 45.5961 144.58 45.7398 143.81 45.7272C142.668 45.7271 141.552 45.3895 140.602 44.7567C139.651 44.1239 138.909 43.2243 138.469 42.1709C138.029 41.1176 137.91 39.9576 138.127 38.8369C138.345 37.7161 138.889 36.6846 139.691 35.8722C140.493 35.0597 141.517 34.5026 142.635 34.2708C143.753 34.039 144.914 34.1429 145.973 34.5695C147.032 34.9961 147.941 35.7263 148.586 36.6682ZM179.957 30.5877L174.134 49.139H170.199L166.34 36.6375L162.446 49.139H158.517L152.693 30.5877H156.919L160.517 43.3907L164.411 30.5877H168.235L172.094 43.3907L175.727 30.5877H179.957ZM185.314 30.5877H181.294V49.139H185.314V30.5877ZM70.599 7.48892V11.8253C67.961 11.6444 64.8808 12.8654 64.8808 17.0209V26.3719H60.861V7.82055H64.8808V10.9359C65.9963 8.41347 68.2574 7.48892 70.599 7.48892ZM94.6776 30.1053C92.1653 30.1053 90.1554 31.0299 88.9293 32.9594V22.7993L85.6432 20.8799C85.4356 21.1778 85.1945 21.4509 84.9246 21.6939C83.8085 22.6915 82.3563 23.23 80.8596 23.2013C77.89 23.2013 75.5535 21.6939 74.9254 18.8197H89.6881C89.7775 18.2679 89.8278 17.7104 89.8388 17.1515C89.8388 11.8102 86.0552 7.35829 80.5229 7.35829C74.6993 7.35829 70.7297 11.6243 70.7297 17.1163C70.7297 22.6084 74.6993 26.8744 80.8244 26.8744C82.2294 26.8848 83.6226 26.6184 84.9246 26.0905V49.1541H88.9444V39.19C88.9444 35.4064 91.0196 33.8487 93.6576 33.8487C96.17 33.8487 97.8081 35.3562 97.8081 38.1549V49.134H101.828V37.7429C101.803 32.9242 98.8482 30.1053 94.6776 30.1053ZM80.4878 10.9761C82.8997 10.9761 85.2362 12.3479 85.7939 15.5386H74.8852C75.4429 12.7549 77.483 10.9761 80.4878 10.9761ZM103.498 22.6452C102.663 23.0464 101.743 23.2373 100.818 23.2013C97.8431 23.2013 95.5117 21.6939 94.8836 18.7745H109.636C109.726 18.2226 109.776 17.6652 109.787 17.1063C109.787 11.765 106.003 7.31304 100.476 7.31304C94.6524 7.31304 90.6779 11.5087 90.6779 17.0711C90.6779 22.6335 94.6524 26.8291 100.773 26.8291C104.405 26.8291 107.189 25.3217 108.898 22.8094L105.606 20.9C105.056 21.645 104.332 22.2441 103.498 22.6452ZM100.446 10.9962C102.858 10.9962 105.194 12.3679 105.752 15.5587H94.8434C95.4212 12.7749 97.4311 10.9962 100.446 10.9962ZM151.457 23.2013C152.383 23.2381 153.303 23.0476 154.138 22.6465C154.973 22.2453 155.696 21.6456 156.246 20.9L159.547 22.8295C157.839 25.3418 155.06 26.8493 151.422 26.8493C145.302 26.8493 141.332 22.6536 141.332 17.0912C141.332 11.5288 145.302 7.33315 151.126 7.33315C156.653 7.33315 160.436 11.7851 160.436 17.1264C160.427 17.6852 160.378 18.2426 160.291 18.7946H145.523C146.156 21.6939 148.493 23.2013 151.457 23.2013ZM156.391 15.5587C155.839 12.368 153.502 10.9962 151.09 10.9962C148.076 10.9962 146.04 12.775 145.488 15.5587H156.391ZM181.294 22.7742H185.304V26.392H181.294V22.7742ZM31.0141 7.33315C28.5017 7.33315 26.4918 8.2577 25.2658 10.1872V8.06174V7.76026H21.246V9.29783V26.382H25.2658V16.4179C25.2658 12.6343 27.341 11.0766 29.974 11.0766C32.4863 11.0766 34.1294 12.584 34.1294 15.3828V26.3619H38.1492V14.9708C38.1492 10.137 35.1846 7.33315 31.0141 7.33315ZM166.471 26.3619H162.451L162.466 7.79041H166.486V10.1872C167.717 8.2577 169.727 7.33315 172.239 7.33315C176.395 7.33315 179.36 10.152 179.36 14.9708V26.3619H175.34V15.3828C175.34 12.584 173.697 11.0766 171.184 11.0766C168.551 11.0766 166.471 12.6343 166.471 16.4179V26.3619ZM115.028 12.9408C115.028 11.6042 116.289 10.9761 117.736 10.9761C118.414 10.9414 119.088 11.0983 119.681 11.4289C120.273 11.7595 120.761 12.2504 121.088 12.8453L124.56 11.1419C123.248 8.73506 120.751 7.34823 117.736 7.34823C113.952 7.34823 110.948 9.53902 110.948 13.0262C110.948 16.9187 114.38 17.8909 117.218 18.6951C119.22 19.2622 120.927 19.7457 120.927 21.111C120.927 22.6184 119.555 23.1913 117.771 23.1913C115.987 23.1913 114.626 22.4225 113.917 21.111L110.37 22.8596C111.626 25.3318 114.224 26.8794 117.771 26.8794C121.791 26.8794 125.007 24.8695 125.007 21.1663C125.007 17.1142 121.554 16.1514 118.711 15.3584C116.72 14.8032 115.028 14.3313 115.028 12.9408ZM133.212 10.9761C131.765 10.9761 130.504 11.6042 130.504 12.9408C130.504 14.3316 132.196 14.8034 134.188 15.3588C137.032 16.1517 140.486 17.1149 140.498 21.1663C140.498 24.8695 137.282 26.8794 133.263 26.8794C129.71 26.8794 127.117 25.3318 125.861 22.8596L129.409 21.111C130.117 22.4225 131.479 23.1913 133.263 23.1913C135.046 23.1913 136.418 22.6184 136.418 21.111C136.418 19.7457 134.71 19.2622 132.708 18.6951C129.868 17.8909 126.434 16.9187 126.434 13.0262C126.434 9.53902 129.439 7.34823 133.227 7.34823C136.242 7.34823 138.74 8.73506 140.051 11.1419L136.564 12.8453C136.236 12.2512 135.748 11.761 135.156 11.4305C134.563 11.1 133.89 10.9426 133.212 10.9761Z" fill="white"/>
</g>
<defs>
<clipPath id="clip0_3393_208">
<rect width="215" height="50" fill="white"/>
</clipPath>
</defs>
</svg>
