<svg width="30" height="30" viewBox="0 0 30 30" fill="none" xmlns="http://www.w3.org/2000/svg">
<g clip-path="url(#clip0_726_5386)">
<path d="M14.8212 1.0464L14.8212 1.0464L14.8212 1.0464ZM14.8212 1.0464L2.17848 8.1232C2.12422 8.15365 2.07916 8.1974 2.04784 8.25005C2.01651 8.3027 2.00002 8.36241 2 8.4232L14.8212 1.0464ZM11.2705 22.5185L11.2706 22.5185L13.4475 23.7372C13.5525 23.7959 13.63 23.8932 13.662 24.0084C13.6939 24.1238 13.6772 24.2466 13.6159 24.3496C13.5547 24.4525 13.4544 24.5267 13.3379 24.5571C13.2214 24.5874 13.0972 24.5717 12.9923 24.513L12.9922 24.513L10.8154 23.2944C10.7633 23.2653 10.7174 23.2265 10.6805 23.1799C10.6436 23.1333 10.6165 23.0799 10.6007 23.0228C10.585 22.9656 10.5811 22.906 10.5891 22.8473C10.5972 22.7887 10.6172 22.7322 10.6477 22.6813M11.2705 22.5185L10.6477 22.6813M11.2705 22.5185C11.1657 22.46 11.0417 22.4443 10.9253 22.4745C10.809 22.5048 10.7089 22.5788 10.6477 22.6813M11.2705 22.5185L10.6477 22.6813M2.81491 9.19377V22.3181L14.5407 28.8824V15.7587L11.1844 13.879V19.7876C11.1844 19.8666 11.1629 19.944 11.1224 20.012C11.0819 20.08 11.0239 20.136 10.9545 20.1748L2.81491 9.19377ZM2.81491 9.19377L6.17284 11.0735M2.81491 9.19377L6.17284 11.0735M6.17284 11.0735V17.4946C6.17286 17.5736 6.19435 17.651 6.23488 17.719C6.2754 17.787 6.33342 17.8431 6.40281 17.8819C6.40283 17.8819 6.40284 17.8819 6.40286 17.8819L10.4995 20.1748C10.5689 20.2137 10.6473 20.234 10.727 20.234C10.8067 20.234 10.8851 20.2137 10.9544 20.1749L6.17284 11.0735ZM27.8705 8.03599L27.8704 8.03594L15.2277 0.959142L15.2276 0.959116C15.1582 0.920313 15.0797 0.9 15 0.9C14.9203 0.9 14.8418 0.920314 14.7724 0.959116L14.7723 0.959142L2.12963 8.03594L2.12954 8.036C2.06025 8.07488 2.00233 8.13096 1.9619 8.19892C1.92145 8.2669 1.90002 8.34425 1.9 8.42317V8.4232V22.5768C1.90002 22.6558 1.92145 22.7331 1.9619 22.8011C2.00233 22.869 2.06025 22.9251 2.12954 22.964L2.12963 22.9641L14.7723 30.0409L14.7724 30.0409C14.8418 30.0797 14.9203 30.1 15 30.1C15.0797 30.1 15.1582 30.0797 15.2276 30.0409L15.2277 30.0409L27.8704 22.9641L27.8705 22.964C27.9398 22.9251 27.9977 22.869 28.0381 22.8011C28.0785 22.7331 28.1 22.6558 28.1 22.5768V8.4232C28.1 8.34425 28.0785 8.2669 28.0381 8.19892C27.9977 8.13096 27.9398 8.07488 27.8705 8.03599ZM13.6155 26.6237L13.6156 26.6235C13.6767 26.5206 13.6933 26.398 13.6614 26.2829C13.6296 26.1678 13.5523 26.0707 13.4476 26.0119L13.4475 26.0118L11.2706 24.7932L11.2217 24.8804L11.2705 24.7932C11.1657 24.7345 11.0416 24.7188 10.9252 24.749C10.8087 24.7793 10.7084 24.8534 10.6472 24.9562C10.5859 25.0591 10.5692 25.1819 10.601 25.2972C10.6329 25.4123 10.7104 25.5096 10.8153 25.5683L12.9922 26.7867L12.9923 26.7867C13.0971 26.8453 13.2212 26.8609 13.3376 26.8307C13.454 26.8004 13.5543 26.7264 13.6155 26.6237ZM15 14.9852L11.6484 13.1081L23.3695 6.54643L26.7211 8.42319L15 14.9852ZM22.4499 6.03161L10.7268 12.5933L7.55044 10.8151L19.2732 4.25344L22.4499 6.03161ZM7.08809 17.2359V11.586L10.2695 13.3675V19.0167L7.08809 17.2359ZM15 1.86153L18.3535 3.73863L6.63047 10.3003L3.27726 8.4232L15 1.86153ZM15.4576 28.8824V15.7587L27.1851 9.19377V22.3177L15.4576 28.8824Z" fill="black" stroke="black" stroke-width="0.2"/>
</g>
<defs>
<clipPath id="clip0_726_5386">
<rect width="30" height="30" fill="white"/>
</clipPath>
</defs>
</svg>
