<svg width="30" height="30" viewBox="0 0 30 30" fill="none" xmlns="http://www.w3.org/2000/svg">
<path d="M7.68394 9.02223L7.61304 9.09312L7.68412 9.16383L14.0368 15.4835L7.68394 21.8364L7.61232 21.908L7.68484 21.9787L9.02313 23.2835L9.09383 23.3524L9.16365 23.2826L15.4835 16.9628L21.8365 23.2828L21.9072 23.3531L21.9778 23.2826L23.2826 21.9778L23.3531 21.9072L23.2828 21.8365L16.9628 15.4835L23.2826 9.16365L23.3524 9.09383L23.2835 9.02313L21.9787 7.68484L21.908 7.61232L21.8364 7.68394L15.4835 14.0368L9.16383 7.68412L9.09312 7.61304L9.02223 7.68394L7.68394 9.02223ZM29.1 15.4833C29.1 7.96675 22.9991 1.9 15.4833 1.9C7.96708 1.9 1.9 7.96708 1.9 15.4833C1.9 22.9991 7.96675 29.1 15.4833 29.1C22.9995 29.1 29.1 22.9995 29.1 15.4833ZM15.4833 2.83606C22.4877 2.83606 28.1639 8.51265 28.1639 15.4833C28.1639 22.4875 22.4875 28.1639 15.4833 28.1639C8.51265 28.1639 2.83606 22.4877 2.83606 15.4833C2.83606 8.51248 8.51248 2.83606 15.4833 2.83606Z" fill="#FF0000" stroke="#FF0000" stroke-width="0.2"/>
</svg>
