<svg width="24" height="28" viewBox="0 0 24 28" fill="none" xmlns="http://www.w3.org/2000/svg">
<path d="M7 9C6.66848 9 6.35054 9.1317 6.11612 9.36612C5.8817 9.60054 5.75 9.91848 5.75 10.25C5.75 10.5815 5.8817 10.8995 6.11612 11.1339C6.35054 11.3683 6.66848 11.5 7 11.5H8.25C8.58152 11.5 8.89946 11.3683 9.13388 11.1339C9.3683 10.8995 9.5 10.5815 9.5 10.25C9.5 9.91848 9.3683 9.60054 9.13388 9.36612C8.89946 9.1317 8.58152 9 8.25 9H7ZM13.25 24H4.5C4.16848 24 3.85054 23.8683 3.61612 23.6339C3.3817 23.3995 3.25 23.0815 3.25 22.75V5.25C3.25 4.91848 3.3817 4.60054 3.61612 4.36612C3.85054 4.1317 4.16848 4 4.5 4H10.75V7.75C10.75 8.74456 11.1451 9.69839 11.8483 10.4017C12.5516 11.1049 13.5054 11.5 14.5 11.5H18.25V14C18.25 14.3315 18.3817 14.6495 18.6161 14.8839C18.8505 15.1183 19.1685 15.25 19.5 15.25C19.8315 15.25 20.1495 15.1183 20.3839 14.8839C20.6183 14.6495 20.75 14.3315 20.75 14V10.25C20.75 10.25 20.75 10.25 20.75 10.175C20.737 10.0602 20.7118 9.94704 20.675 9.8375V9.725C20.6149 9.59647 20.5347 9.47833 20.4375 9.375L12.9375 1.875C12.8342 1.77777 12.716 1.6976 12.5875 1.6375C12.5461 1.63026 12.5039 1.63026 12.4625 1.6375C12.341 1.5725 12.2103 1.52615 12.075 1.5H4.5C3.50544 1.5 2.55161 1.89509 1.84835 2.59835C1.14509 3.30161 0.75 4.25544 0.75 5.25V22.75C0.75 23.7446 1.14509 24.6984 1.84835 25.4017C2.55161 26.1049 3.50544 26.5 4.5 26.5H13.25C13.5815 26.5 13.8995 26.3683 14.1339 26.1339C14.3683 25.8995 14.5 25.5815 14.5 25.25C14.5 24.9185 14.3683 24.6005 14.1339 24.3661C13.8995 24.1317 13.5815 24 13.25 24ZM13.25 5.7625L16.4875 9H14.5C14.1685 9 13.8505 8.8683 13.6161 8.63388C13.3817 8.39946 13.25 8.08152 13.25 7.75V5.7625ZM14.5 14H7C6.66848 14 6.35054 14.1317 6.11612 14.3661C5.8817 14.6005 5.75 14.9185 5.75 15.25C5.75 15.5815 5.8817 15.8995 6.11612 16.1339C6.35054 16.3683 6.66848 16.5 7 16.5H14.5C14.8315 16.5 15.1495 16.3683 15.3839 16.1339C15.6183 15.8995 15.75 15.5815 15.75 15.25C15.75 14.9185 15.6183 14.6005 15.3839 14.3661C15.1495 14.1317 14.8315 14 14.5 14ZM22.8875 21.8625C22.7713 21.7453 22.633 21.6523 22.4807 21.5889C22.3284 21.5254 22.165 21.4928 22 21.4928C21.835 21.4928 21.6716 21.5254 21.5193 21.5889C21.367 21.6523 21.2287 21.7453 21.1125 21.8625L20.75 22.2375V19C20.75 18.6685 20.6183 18.3505 20.3839 18.1161C20.1495 17.8817 19.8315 17.75 19.5 17.75C19.1685 17.75 18.8505 17.8817 18.6161 18.1161C18.3817 18.3505 18.25 18.6685 18.25 19V22.2375L17.8875 21.8625C17.6521 21.6271 17.3329 21.4949 17 21.4949C16.6671 21.4949 16.3479 21.6271 16.1125 21.8625C15.8771 22.0979 15.7449 22.4171 15.7449 22.75C15.7449 23.0829 15.8771 23.4021 16.1125 23.6375L18.6125 26.1375C18.7314 26.2513 18.8716 26.3405 19.025 26.4C19.1746 26.4661 19.3364 26.5003 19.5 26.5003C19.6636 26.5003 19.8254 26.4661 19.975 26.4C20.1284 26.3405 20.2686 26.2513 20.3875 26.1375L22.8875 23.6375C23.0047 23.5213 23.0977 23.383 23.1611 23.2307C23.2246 23.0784 23.2572 22.915 23.2572 22.75C23.2572 22.585 23.2246 22.4216 23.1611 22.2693C23.0977 22.117 23.0047 21.9787 22.8875 21.8625ZM12 21.5C12.3315 21.5 12.6495 21.3683 12.8839 21.1339C13.1183 20.8995 13.25 20.5815 13.25 20.25C13.25 19.9185 13.1183 19.6005 12.8839 19.3661C12.6495 19.1317 12.3315 19 12 19C12 19 7.33152 19 7 19C6.66848 19 6.35054 19.1317 6.11612 19.3661C5.8817 19.6005 5.75 19.9185 5.75 20.25C5.75 20.5815 5.8817 20.8995 6.11612 21.1339C6.35054 21.3683 6.66848 21.5 7 21.5H12Z" fill="white" stroke="#0070F0" stroke-width="1.11111"/>
</svg>
