<svg width="22" height="22" viewBox="0 0 22 22" fill="none" xmlns="http://www.w3.org/2000/svg">
<path d="M12.1731 11.1724L12.1733 11.1726L18.694 3.92552H3.31033L9.8349 11.1685L9.84002 11.1742L9.83979 11.1744C9.85323 11.1918 9.86155 11.2102 9.86534 11.2185L9.86603 11.2201C9.86828 11.225 9.86945 11.2273 9.86986 11.2282L9.87433 11.2339L9.8785 11.2421C9.88157 11.248 9.88487 11.2533 9.89081 11.2627C9.89209 11.2648 9.89348 11.267 9.89502 11.2695C9.90283 11.2819 9.91323 11.299 9.92245 11.3199L9.9277 11.3318L9.92689 11.3321C9.93702 11.3665 9.94202 11.4002 9.94593 11.4268C9.94599 11.4272 9.94604 11.4276 9.9461 11.4279L9.94644 11.4302L12.1731 11.1724ZM12.1731 11.1724L12.1685 11.1784M12.1731 11.1724L12.1685 11.1784M12.1685 11.1784C12.152 11.1997 12.1381 11.2286 12.1323 11.2408M12.1685 11.1784L12.1323 11.2408M2.45251 0.9H19.5516C20.4024 0.9 21.1044 1.57373 21.1 2.40927M2.45251 0.9L21 2.40873M2.45251 0.9C1.5971 0.9 0.9 1.57409 0.9 2.41276C0.9 3.0317 1.28131 3.55972 1.82181 3.79605L8.92813 11.6964V18.0739C8.92813 18.2248 8.9956 18.3661 9.11417 18.4615L2.45251 0.9ZM21.1 2.40927L21 2.40873M21.1 2.40927C21.1 2.40909 21.1 2.40891 21.1 2.40873H21M21.1 2.40927C21.0998 3.02798 20.7185 3.55577 20.1782 3.79203M21 2.40873C21 2.99235 20.6358 3.49145 20.1185 3.70879M20.1782 3.79203L20.1929 3.77567L20.1185 3.70879M20.1782 3.79203L13.0718 11.6924M20.1782 3.79203C20.1712 3.79506 20.1643 3.79805 20.1573 3.80099L20.1185 3.70879M20.1185 3.70879L13.0718 11.6924M13.0718 11.6924V11.6541H12.9718L13.0462 11.7209L13.0718 11.6924ZM13.0718 11.6924V20.5975C13.0718 20.7946 12.9529 20.9749 12.7726 21.0551M13.0718 11.6924L12.7318 20.9638M12.7726 21.0551C12.7727 21.0551 12.7727 21.055 12.7728 21.055L12.7318 20.9638M12.7726 21.0551C12.7725 21.0551 12.7725 21.0551 12.7725 21.0552L12.7318 20.9638M12.7726 21.0551C12.7049 21.0855 12.6288 21.1 12.558 21.1C12.4409 21.1 12.3233 21.0605 12.2302 20.9851L12.2932 20.9074C12.3677 20.9678 12.4628 21 12.558 21C12.616 21 12.678 20.9879 12.7318 20.9638M12.1323 11.2408C12.1318 11.2414 12.1314 11.2421 12.1309 11.2428C12.1184 11.2601 12.0958 11.2915 12.0832 11.33C12.0686 11.3666 12.0645 11.4084 12.0627 11.4266C12.0625 11.4285 12.0623 11.4302 12.0622 11.4315C12.0618 11.4329 12.0614 11.4342 12.0608 11.4362C12.06 11.4388 12.0588 11.4427 12.0568 11.4495C12.0534 11.4616 12.0483 11.4812 12.0483 11.5051V19.5263L9.95991 17.833L12.1323 11.2408ZM9.11447 18.4617L12.2302 20.9851L9.11447 18.4617ZM19.5516 2.92053H2.45251C2.16164 2.92053 1.92764 2.689 1.92764 2.41276C1.92764 2.13651 2.16164 1.90499 2.45251 1.90499H19.5475C19.8383 1.90499 20.0723 2.13651 20.0723 2.41276C20.0723 2.68986 19.8416 2.92053 19.5516 2.92053Z" fill="white" stroke="white" stroke-width="0.2"/>
</svg>
