<svg width="28" height="20" viewBox="0 0 28 20" fill="none" xmlns="http://www.w3.org/2000/svg">
<path d="M10.0023 5.08194C10.0023 7.41585 11.9004 9.31387 14.2343 9.31387C16.5682 9.31387 18.4662 7.41585 18.4662 5.08194C18.4662 2.74803 16.5682 0.85 14.2343 0.85C11.9004 0.85 10.0023 2.74803 10.0023 5.08194ZM10.9026 5.08194C10.9026 3.24387 12.3962 1.75028 14.2343 1.75028C16.0723 1.75028 17.5659 3.24387 17.5659 5.08194C17.5659 6.92 16.0723 8.41359 14.2343 8.41359C12.3962 8.41359 10.9026 6.92 10.9026 5.08194Z" fill="black" stroke="black" stroke-width="0.3"/>
<path d="M19.9984 6.70806C19.9984 8.35164 21.3262 9.6794 22.9698 9.6794C24.6134 9.6794 25.9411 8.35164 25.9411 6.70806C25.9411 5.06447 24.6134 3.73672 22.9698 3.73672C21.3262 3.73672 19.9984 5.06447 19.9984 6.70806ZM20.8987 6.70806C20.8987 5.56032 21.822 4.637 22.9698 4.637C24.1175 4.637 25.0408 5.56032 25.0408 6.70806C25.0408 7.8558 24.1175 8.77911 22.9698 8.77911C21.822 8.77911 20.8987 7.8558 20.8987 6.70806Z" fill="black" stroke="black" stroke-width="0.3"/>
<path d="M2.52969 6.70806C2.52969 8.35164 3.85744 9.6794 5.50103 9.6794C7.14461 9.6794 8.47236 8.35164 8.47236 6.70806C8.47236 5.06447 7.14461 3.73672 5.50103 3.73672C3.85744 3.73672 2.52969 5.06447 2.52969 6.70806ZM3.42997 6.70806C3.42997 5.56032 4.35328 4.637 5.50103 4.637C6.64877 4.637 7.57208 5.56032 7.57208 6.70806C7.57208 7.8558 6.64877 8.77911 5.50103 8.77911C4.35328 8.77911 3.42997 7.8558 3.42997 6.70806Z" fill="black" stroke="black" stroke-width="0.3"/>
<path d="M20.0598 15.9777V16.1101L20.1912 16.1265L20.4295 16.1563C21.0389 16.2476 21.7967 16.3078 23.0011 16.3078H23.0219C24.1615 16.3078 25.3078 16.3078 26.1725 16.0028C26.6125 15.8477 26.9899 15.6105 27.2582 15.2465C27.5268 14.8821 27.6755 14.4048 27.6833 13.7886L27.6833 13.7886L27.6833 13.7849C27.6524 11.1014 25.524 8.83437 23.0011 8.83437C21.3195 8.83437 19.7113 9.8902 18.9074 11.5238L18.8206 11.6685L18.7743 11.7457L18.8206 11.8229L18.9106 11.9729L18.9105 11.973L18.9139 11.9782C19.6501 13.0972 20.0598 14.3595 20.0598 15.6175V15.9777ZM23.0011 15.4075C22.0952 15.4075 21.4683 15.357 20.9558 15.3024C20.9037 14.0541 20.5227 12.7851 19.8136 11.6502C20.4896 10.4484 21.7074 9.70465 22.9711 9.70465C24.9789 9.70465 26.7234 11.5477 26.753 13.7576C26.7529 14.1448 26.681 14.4288 26.5464 14.6416C26.4128 14.8529 26.2076 15.0098 25.9108 15.125C25.3041 15.3605 24.3588 15.4075 23.0011 15.4075Z" fill="black" stroke="black" stroke-width="0.3"/>
<path d="M9.67119 11.8101L9.73634 11.7286L9.68268 11.6392L9.59587 11.4945C8.79193 9.86091 7.18379 8.80508 5.50214 8.80508C2.97952 8.80508 0.85 11.0722 0.85 13.7574C0.85 14.3807 0.992458 14.8637 1.25646 15.2328C1.52036 15.6017 1.89526 15.8422 2.33376 15.9995C3.19503 16.3085 4.3417 16.3085 5.48095 16.3085H5.50214C6.7066 16.3085 7.46442 16.2483 8.07376 16.157L8.31206 16.1273L8.44346 16.1108V15.9784V15.5882H8.4435L8.44342 15.5847C8.41421 14.3289 8.79317 13.0706 9.55465 11.9558L9.67119 11.8101ZM1.75028 13.7574C1.75028 11.579 3.52381 9.70536 5.50214 9.70536C6.76585 9.70536 7.98368 10.4491 8.65965 11.6509C7.95005 12.7867 7.56893 14.0579 7.54444 15.3095C7.03918 15.3825 6.41527 15.4082 5.50214 15.4082C4.14443 15.4082 3.19916 15.3613 2.59252 15.1257C2.29565 15.0105 2.09044 14.8536 1.95687 14.6423C1.82218 14.4293 1.75028 14.145 1.75028 13.7574Z" fill="black" stroke="black" stroke-width="0.3"/>
<path d="M7.51016 15.5878C7.51016 16.4668 7.71479 17.1416 8.08911 17.6544C8.46314 18.1667 8.9958 18.5025 9.62521 18.7232C10.8687 19.1594 12.5325 19.1594 14.2118 19.1594H14.2333H14.2547C15.934 19.1594 17.5979 19.1594 18.8413 18.7232C19.4707 18.5025 20.0034 18.1667 20.3774 17.6544C20.7518 17.1416 20.9564 16.4668 20.9564 15.5878C20.9564 11.7627 17.837 8.41445 14.2333 8.41445C10.6296 8.41445 7.51016 11.7627 7.51016 15.5878ZM8.41044 15.5878C8.41044 12.2386 11.1447 9.31474 14.2333 9.31474C17.3219 9.31474 20.0561 12.2386 20.0561 15.5878C20.0561 16.2076 19.9394 16.6721 19.716 17.0246C19.4936 17.3755 19.1558 17.6309 18.6845 17.8155C17.7291 18.1896 16.2662 18.2591 14.2333 18.2591C12.2003 18.2591 10.7375 18.1896 9.78209 17.8155C9.31072 17.6309 8.97296 17.3755 8.7506 17.0246C8.5272 16.6721 8.41044 16.2076 8.41044 15.5878Z" fill="black" stroke="black" stroke-width="0.3"/>
</svg>
