<svg width="30" height="30" viewBox="0 0 30 30" fill="none" xmlns="http://www.w3.org/2000/svg">
<path d="M14.9996 2C11.5531 2.00386 8.24883 3.3747 5.81177 5.81177C3.3747 8.24883 2.00386 11.5531 2 14.9996C2.71393 32.2454 27.288 32.2404 27.9992 14.9995C27.9953 11.553 26.6245 8.24878 24.1874 5.81174C21.7504 3.37469 18.4461 2.00387 14.9996 2ZM14.9996 26.1421C12.0455 26.1388 9.21329 24.9637 7.12439 22.8748C5.03549 20.7859 3.86047 17.9538 3.85709 14.9996C4.46931 0.217558 25.5322 0.221838 26.1421 14.9997C26.1387 17.9538 24.9637 20.786 22.8748 22.8749C20.7859 24.9637 17.9537 26.1388 14.9996 26.1421ZM16.3902 13.6009V21.9577C16.3854 22.2009 16.2855 22.4324 16.1119 22.6027C15.9383 22.773 15.7048 22.8684 15.4616 22.8684C15.2185 22.8684 14.985 22.773 14.8114 22.6028C14.6377 22.4325 14.5378 22.2009 14.5331 21.9578V14.5294H13.6046C13.3615 14.5247 13.1299 14.4248 12.9596 14.2512C12.7893 14.0776 12.694 13.8441 12.6939 13.6009C12.6939 13.3578 12.7893 13.1243 12.9596 12.9506C13.1298 12.777 13.3614 12.6771 13.6045 12.6724H15.4616C15.7079 12.6724 15.9441 12.7702 16.1182 12.9443C16.2923 13.1185 16.3902 13.3546 16.3902 13.6009ZM15.0127 10.8058C14.6495 10.8006 14.3029 10.6527 14.0479 10.3941C13.7929 10.1354 13.6499 9.78678 13.6499 9.42355C13.6499 9.06032 13.7928 8.71167 14.0478 8.453C14.3028 8.19433 14.6494 8.04642 15.0126 8.04126C15.3758 8.0464 15.7224 8.19429 15.9774 8.45294C16.2324 8.71159 16.3754 9.06023 16.3754 9.42346C16.3754 9.78669 16.2325 10.1353 15.9775 10.394C15.7225 10.6527 15.3759 10.8006 15.0127 10.8058Z" fill="black"/>
</svg>
