<svg width="18" height="18" viewBox="0 0 18 18" fill="none" xmlns="http://www.w3.org/2000/svg">
<g id="message" clip-path="url(#clip0_104_10994)">
<path id="Vector" d="M12.3944 2.77832C14.6911 2.78534 16.5512 4.65918 16.5582 6.97283V8.02146L16.5535 8.09087C16.5199 8.34054 16.3075 8.53298 16.0504 8.53298L16.044 8.52019L15.9641 8.51382C15.8591 8.49695 15.7612 8.44711 15.685 8.37037C15.5898 8.27444 15.5363 8.14433 15.5363 8.00867V6.97283C15.5191 5.23204 14.1224 3.82509 12.3944 3.80777H6.37083C4.64278 3.82509 3.24613 5.23204 3.22894 6.97283V11.4998C3.24613 13.2406 4.64278 14.6476 6.37083 14.6649H12.3944C14.1224 14.6476 15.5191 13.2406 15.5363 11.4998C15.5653 11.2377 15.7853 11.0394 16.0472 11.0394C16.3091 11.0394 16.5291 11.2377 16.5582 11.4998C16.5512 13.8135 14.6911 15.6873 12.3944 15.6943H6.37083C4.07268 15.6908 2.21053 13.8149 2.20703 11.4998V6.97283C2.20703 4.65627 4.07123 2.77832 6.37083 2.77832H12.3944ZM5.28853 6.64374C5.42219 6.62932 5.556 6.66956 5.65993 6.75543L8.64314 9.13402C9.01579 9.42856 9.53995 9.42856 9.91259 9.13402L12.8641 6.75543H12.8704L12.9326 6.71262C13.1471 6.58717 13.4257 6.63346 13.5876 6.83216C13.6725 6.93871 13.7116 7.07504 13.6961 7.21077C13.6806 7.3465 13.6118 7.47034 13.5051 7.55469L10.5537 9.93968C9.80319 10.548 8.7335 10.548 7.98303 9.93968L5.02521 7.55469L4.9706 7.50239C4.80381 7.31754 4.79022 7.03343 4.94904 6.83216C5.03256 6.72605 5.15487 6.65817 5.28853 6.64374Z" fill="black"/>
<circle id="Ellipse 223" cx="15.8631" cy="9.58287" r="2.13268" fill="#FF0000"/>
</g>
<defs>
<clipPath id="clip0_104_10994">
<rect width="17.2214" height="17.2214" fill="white" transform="translate(0.773438 0.625488)"/>
</clipPath>
</defs>
</svg>
