<svg width="30" height="30" viewBox="0 0 30 30" fill="none" xmlns="http://www.w3.org/2000/svg">
<path fill-rule="evenodd" clip-rule="evenodd" d="M25.0768 9.45521C25.1376 9.45357 25.198 9.46411 25.2546 9.48621C25.3112 9.50831 25.3628 9.54153 25.4063 9.5839C25.4498 9.62627 25.4844 9.67694 25.5081 9.73291C25.5317 9.78887 25.5439 9.84901 25.5439 9.90976C25.5439 9.97051 25.5317 10.0306 25.5081 10.0866C25.4844 10.1426 25.4498 10.1932 25.4063 10.2356C25.3628 10.278 25.3112 10.3112 25.2546 10.3333C25.198 10.3554 25.1376 10.3659 25.0768 10.3643H20.8019C20.7412 10.3659 20.6807 10.3554 20.6241 10.3333C20.5676 10.3112 20.516 10.278 20.4724 10.2356C20.4289 10.1932 20.3943 10.1426 20.3707 10.0866C20.347 10.0306 20.3349 9.97051 20.3349 9.90976C20.3349 9.84901 20.347 9.78887 20.3707 9.73291C20.3943 9.67694 20.4289 9.62627 20.4724 9.5839C20.516 9.54153 20.5676 9.50831 20.6241 9.48621C20.6807 9.46411 20.7412 9.45357 20.8019 9.45521H25.0768ZM3.92565 9.45521C4.04407 9.45842 4.15657 9.50772 4.23919 9.59261C4.32182 9.67751 4.36805 9.79129 4.36805 9.90976C4.36805 10.0282 4.32182 10.142 4.23919 10.2269C4.15657 10.3118 4.04407 10.3611 3.92565 10.3643H3.88261C3.76419 10.3611 3.65169 10.3118 3.56907 10.2269C3.48644 10.142 3.44021 10.0282 3.44021 9.90976C3.44021 9.79129 3.48644 9.67751 3.56907 9.59261C3.65169 9.50772 3.76419 9.45842 3.88261 9.45521H3.92565ZM18.143 23.0609C18.0246 23.0577 17.9121 23.0084 17.8294 22.9235C17.7468 22.8386 17.7006 22.7248 17.7006 22.6063C17.7006 22.4879 17.7468 22.3741 17.8294 22.2892C17.9121 22.2043 18.0246 22.155 18.143 22.1518H22.8173C22.878 22.1501 22.9384 22.1607 22.995 22.1828C23.0516 22.2049 23.1032 22.2381 23.1467 22.2805C23.1903 22.3229 23.2249 22.3735 23.2485 22.4295C23.2721 22.4855 23.2843 22.5456 23.2843 22.6063C23.2843 22.6671 23.2721 22.7272 23.2485 22.7832C23.2249 22.8392 23.1903 22.8898 23.1467 22.9322C23.1032 22.9746 23.0516 23.0078 22.995 23.0299C22.9384 23.052 22.878 23.0625 22.8173 23.0609H18.143ZM6.78073 23.0609C6.6623 23.0577 6.54981 23.0084 6.46718 22.9235C6.38456 22.8386 6.33833 22.7248 6.33833 22.6063C6.33833 22.4879 6.38456 22.3741 6.46718 22.2892C6.54981 22.2043 6.6623 22.155 6.78073 22.1518H16.1456C16.2064 22.1501 16.2668 22.1607 16.3234 22.1828C16.38 22.2049 16.4316 22.2381 16.4751 22.2805C16.5186 22.3229 16.5532 22.3735 16.5769 22.4295C16.6005 22.4855 16.6127 22.5456 16.6127 22.6063C16.6127 22.6671 16.6005 22.7272 16.5769 22.7832C16.5532 22.8392 16.5186 22.8898 16.4751 22.9322C16.4316 22.9746 16.38 23.0078 16.3234 23.0299C16.2668 23.052 16.2064 23.0625 16.1456 23.0609H6.78073ZM6.78073 26.5114C6.6623 26.5082 6.54981 26.4589 6.46718 26.374C6.38456 26.2891 6.33833 26.1753 6.33833 26.0569C6.33833 25.9384 6.38456 25.8246 6.46718 25.7397C6.54981 25.6548 6.6623 25.6055 6.78073 25.6023H22.8173C22.878 25.6007 22.9384 25.6112 22.995 25.6333C23.0516 25.6554 23.1032 25.6887 23.1467 25.731C23.1903 25.7734 23.2249 25.8241 23.2485 25.88C23.2721 25.936 23.2843 25.9961 23.2843 26.0569C23.2843 26.1176 23.2721 26.1778 23.2485 26.2337C23.2249 26.2897 23.1903 26.3404 23.1467 26.3827C23.1032 26.4251 23.0516 26.4583 22.995 26.4804C22.9384 26.5025 22.878 26.5131 22.8173 26.5114H6.78073ZM25.4298 5.52093V0.909091H4.57019V5.52093H25.4298ZM25.4298 17.6033H4.57019V29.0912H25.4291V17.6023L25.4298 17.6033ZM2.64957 17.6033C2.53115 17.6001 2.41865 17.5508 2.33603 17.4659C2.2534 17.381 2.20717 17.2673 2.20717 17.1488C2.20717 17.0303 2.2534 16.9165 2.33603 16.8316C2.41865 16.7468 2.53115 16.6975 2.64957 16.6942H27.0432C27.1039 16.6926 27.1643 16.7031 27.2209 16.7252C27.2775 16.7473 27.3291 16.7806 27.3726 16.8229C27.4162 16.8653 27.4508 16.916 27.4744 16.9719C27.498 17.0279 27.5102 17.088 27.5102 17.1488C27.5102 17.2095 27.498 17.2697 27.4744 17.3256C27.4508 17.3816 27.4162 17.4323 27.3726 17.4746C27.3291 17.517 27.2775 17.5502 27.2209 17.5723C27.1643 17.5944 27.1039 17.605 27.0432 17.6033H26.3382V22.1518H27.8712C28.1945 22.1542 28.5069 22.0351 28.7466 21.8182C28.8534 21.7231 28.9391 21.6068 28.9984 21.4767C29.0577 21.3466 29.0892 21.2055 29.0909 21.0626V7.51793C29.0892 7.37502 29.0577 7.23403 28.9984 7.10398C28.9391 6.97393 28.8534 6.85768 28.7466 6.76264C28.507 6.54559 28.1945 6.42651 27.8712 6.42902H2.12813C1.80482 6.42651 1.49236 6.54559 1.25272 6.76264C1.14598 6.85768 1.06023 6.97393 1.00094 7.10398C0.941662 7.23403 0.910155 7.37502 0.908434 7.51793V21.0626C0.91015 21.2055 0.941653 21.3466 1.00093 21.4767C1.06021 21.6068 1.14597 21.7231 1.25272 21.8182C1.49243 22.0351 1.80484 22.1542 2.12813 22.1518H3.66276V17.6023L2.64957 17.6033ZM27.4168 5.52093V3.594H26.3382V5.52093H27.4168ZM3.66109 3.594H2.58251V5.52093H3.66109V3.594ZM1.67341 5.56731C1.2873 5.64631 0.929868 5.8286 0.639206 6.09475C0.439554 6.27448 0.279586 6.49388 0.169524 6.73893C0.0594615 6.98399 0.0017239 7.2493 0 7.51793V21.0626C0.0017239 21.3312 0.0594615 21.5965 0.169524 21.8416C0.279586 22.0866 0.439554 22.306 0.639206 22.4857C1.04627 22.8569 1.5779 23.0617 2.1288 23.0595H3.66343V29.5456C3.66343 29.6053 3.67519 29.6644 3.69805 29.7196C3.7209 29.7747 3.7544 29.8248 3.79663 29.867C3.83886 29.9092 3.88899 29.9427 3.94416 29.9655C3.99932 29.9883 4.05845 30 4.11814 30H25.8835C25.9432 30 26.0023 29.9883 26.0575 29.9655C26.1127 29.9427 26.1628 29.9092 26.205 29.867C26.2473 29.8248 26.2808 29.7747 26.3036 29.7196C26.3265 29.6644 26.3382 29.6053 26.3382 29.5456V23.0609H27.8712C28.4221 23.0631 28.9537 22.8583 29.3608 22.4871C29.5604 22.3073 29.7204 22.0879 29.8305 21.8429C29.9405 21.5978 29.9983 21.3325 30 21.0639V7.51927C29.9983 7.25064 29.9405 6.98532 29.8305 6.74027C29.7204 6.49522 29.5604 6.27581 29.3608 6.09608C29.0701 5.82993 28.7127 5.64764 28.3266 5.56864V3.13962C28.3266 3.01902 28.2787 2.90336 28.1934 2.81809C28.1081 2.73281 27.9925 2.6849 27.8719 2.6849H26.3382V0.454712C26.3382 0.334115 26.2903 0.218457 26.2051 0.133182C26.1198 0.047907 26.0041 0 25.8835 0H4.11581C3.99521 0 3.87955 0.047907 3.79428 0.133182C3.709 0.218457 3.66109 0.334115 3.66109 0.454712V2.6849H2.12646C2.00586 2.6849 1.8902 2.73281 1.80493 2.81809C1.71965 2.90336 1.67175 3.01902 1.67175 3.13962V5.56731H1.67341ZM5.71816 9.45521C5.77889 9.45357 5.83933 9.46411 5.89592 9.48621C5.95251 9.50831 6.00409 9.54153 6.04763 9.5839C6.09116 9.62627 6.12577 9.67694 6.14939 9.73291C6.17302 9.78887 6.18519 9.84901 6.18519 9.90976C6.18519 9.97051 6.17302 10.0306 6.14939 10.0866C6.12577 10.1426 6.09116 10.1932 6.04763 10.2356C6.00409 10.278 5.95251 10.3112 5.89592 10.3333C5.83933 10.3554 5.77889 10.3659 5.71816 10.3643H5.67546C5.61473 10.3659 5.55429 10.3554 5.4977 10.3333C5.44111 10.3112 5.38953 10.278 5.34599 10.2356C5.30246 10.1932 5.26786 10.1426 5.24423 10.0866C5.2206 10.0306 5.20843 9.97051 5.20843 9.90976C5.20843 9.84901 5.2206 9.78887 5.24423 9.73291C5.26786 9.67694 5.30246 9.62627 5.34599 9.5839C5.38953 9.54153 5.44111 9.50831 5.4977 9.48621C5.55429 9.46411 5.61473 9.45357 5.67546 9.45521H5.71816Z" fill="white"/>
</svg>
