<svg width="18" height="18" viewBox="0 0 18 18" fill="none" xmlns="http://www.w3.org/2000/svg">
<rect width="18" height="18" rx="2" fill="#4DA0FF"/>
<path fill-rule="evenodd" clip-rule="evenodd" d="M3.27288 3C3.22252 3.00001 3.17314 3.01392 3.13021 3.04021C3.08728 3.06649 3.05247 3.10412 3.02965 3.14893C3.00682 3.19374 2.99686 3.24398 3.00087 3.29409C3.00487 3.3442 3.0227 3.39222 3.05236 3.43284L7.49494 9.51452V12.7637C7.49494 12.8046 7.50417 12.8449 7.52194 12.8818C7.5397 12.9186 7.56556 12.951 7.59758 12.9765L10.0584 14.9374C10.0986 14.9694 10.147 14.9894 10.198 14.9951C10.2491 15.0009 10.3007 14.9921 10.347 14.9699C10.3933 14.9477 10.4323 14.9128 10.4597 14.8694C10.487 14.826 10.5015 14.7758 10.5015 14.7245V9.51452L14.9454 3.43284C14.9751 3.39222 14.9929 3.3442 14.9969 3.2941C15.0009 3.24399 14.991 3.19376 14.9682 3.14895C14.9453 3.10414 14.9105 3.06651 14.8676 3.04022C14.8247 3.01394 14.7753 3.00002 14.725 3H3.27288Z" fill="white"/>
</svg>
