<svg width="33" height="31" viewBox="0 0 33 31" fill="none" xmlns="http://www.w3.org/2000/svg">
<path d="M32.0809 27.4415H30.9405V9.96367C30.9405 8.5391 29.7809 7.37988 28.356 7.37988H27.0367C26.8794 7.37988 26.7519 7.50777 26.7519 7.66507C26.7519 7.82237 26.8794 7.95026 27.0367 7.95026H28.356C29.4663 7.95026 30.3701 8.85335 30.3701 9.96367V27.4415H1.99597V9.96367C1.99597 8.85335 2.89941 7.95026 4.01007 7.95026H5.32897C5.48627 7.95026 5.61416 7.82237 5.61416 7.66507C5.61416 7.50777 5.48627 7.37988 5.32897 7.37988H4.01007C2.58515 7.37988 1.4256 8.5391 1.4256 9.96367V27.4415H0.285187C0.12789 27.4415 0 27.5694 0 27.7267V29.1526C0 29.2614 0.0625775 29.3612 0.160718 29.4094L2.51335 30.5498C2.55199 30.569 2.59439 30.5782 2.63781 30.5782H29.7286C29.7717 30.5782 29.8141 30.569 29.8527 30.5498L32.2053 29.4094C32.3035 29.3612 32.3664 29.2617 32.3664 29.1526V27.7267C32.3664 27.5694 32.2388 27.4415 32.0809 27.4415ZM31.796 28.9734L29.6629 30.0075H2.70347L0.570719 28.9734V28.0115H31.7964V28.9734H31.796Z" fill="black"/>
<path d="M5.33094 9.7608C5.48824 9.7608 5.61613 9.63291 5.61613 9.47562C5.61613 9.31832 5.48824 9.19043 5.33094 9.19043H3.28094C3.12364 9.19043 2.99609 9.31832 2.99609 9.47562V26.3003C2.99609 26.458 3.12364 26.5855 3.28094 26.5855H29.0884C29.246 26.5855 29.3735 26.458 29.3735 26.3003V9.47562C29.3735 9.31832 29.246 9.19043 29.0884 9.19043H27.0384C26.8811 9.19043 26.7535 9.31832 26.7535 9.47562C26.7535 9.63291 26.8811 9.7608 27.0384 9.7608H28.8032V26.0155H3.56613V9.7608H5.33094Z" fill="black"/>
<path d="M12.3321 29.295H20.0314C20.1891 29.295 20.317 29.1671 20.317 29.0095C20.317 28.8522 20.1891 28.7246 20.0314 28.7246H12.3321C12.1744 28.7246 12.0469 28.8522 12.0469 29.0095C12.0469 29.1671 12.1744 29.295 12.3321 29.295Z" fill="black"/>
<path d="M6.28464 23.5789C6.28806 23.5892 6.29182 23.5991 6.29627 23.609C6.29798 23.6131 6.30037 23.6165 6.30243 23.6206C6.31234 23.6401 6.32431 23.6579 6.33867 23.6747C6.34038 23.6771 6.3421 23.6794 6.34415 23.6815C6.34722 23.6849 6.34927 23.6887 6.35235 23.6918L6.35303 23.6924C6.35816 23.6979 6.36398 23.7013 6.36945 23.7058C6.37218 23.7085 6.37526 23.7106 6.378 23.713C6.42006 23.7468 6.46964 23.7667 6.52162 23.7728C6.52572 23.7732 6.52948 23.7735 6.53393 23.7742C6.54077 23.7745 6.54726 23.7762 6.55444 23.7762C6.55855 23.7762 6.56265 23.7749 6.5671 23.7745C6.57188 23.7745 6.57633 23.7738 6.58112 23.7731C6.59856 23.7714 6.61599 23.7684 6.63309 23.7636C6.64027 23.7612 6.64711 23.7595 6.6543 23.7571C6.65737 23.7557 6.66113 23.7554 6.66455 23.7537C6.67174 23.7506 6.67857 23.7468 6.68575 23.7434C6.68712 23.7424 6.68917 23.7417 6.69088 23.7407C6.70148 23.7348 6.71106 23.7287 6.72063 23.7219C6.72269 23.7201 6.72473 23.7188 6.72679 23.7174C6.73568 23.7102 6.74423 23.703 6.75244 23.6952C6.7538 23.6938 6.75551 23.6928 6.75722 23.6914L8.16025 22.2884L9.55336 23.6812C9.60636 23.74 9.68228 23.7755 9.76434 23.7755H9.76571C9.76571 23.7755 9.76639 23.7755 9.76708 23.7755C9.85325 23.7755 9.93019 23.7362 9.98217 23.6757L11.3701 22.2881L12.7619 23.6798C12.8152 23.7393 12.8915 23.7752 12.9742 23.7752H12.9756H12.977C13.0631 23.7752 13.1397 23.7362 13.1921 23.6757L14.5797 22.2877L15.9732 23.6805C16.0262 23.7393 16.1021 23.7749 16.1845 23.7749H16.1858H16.1872C16.2734 23.7749 16.35 23.7355 16.4023 23.675L17.7899 22.2874L19.1858 23.6825C19.2385 23.74 19.3133 23.7749 19.3947 23.7749H19.3961C19.3968 23.7749 19.3975 23.7749 19.3975 23.7749C19.4843 23.7749 19.5606 23.7355 19.6129 23.6747L21.0005 22.2874L22.3919 23.6791C22.4449 23.7386 22.5219 23.7745 22.6043 23.7745H22.6057H22.607C22.6932 23.7745 22.7694 23.7359 22.8214 23.6757L24.2104 22.287L25.6138 23.6904C25.6682 23.7451 25.7413 23.7738 25.8155 23.7738C25.8521 23.7738 25.8894 23.7666 25.9243 23.7523C26.031 23.7082 26.1004 23.6042 26.1004 23.4886V3.84798C26.1004 3.84627 26.0997 3.84422 26.0997 3.84251C26.0997 3.82541 26.0983 3.809 26.0949 3.79258L26.0946 3.7919C26.0912 3.77583 26.0864 3.7601 26.0806 3.74471C26.0785 3.74027 26.0765 3.73582 26.0744 3.73171C26.0693 3.72009 26.0635 3.70915 26.0566 3.69821C26.0542 3.6941 26.0515 3.69 26.0491 3.68589C26.0395 3.67187 26.0289 3.65888 26.0166 3.64657L22.4535 0.0837764C22.4415 0.0714662 22.4282 0.0608653 22.4145 0.0512906C22.41 0.048555 22.4063 0.0461603 22.4022 0.0437666C22.3916 0.0369276 22.3806 0.031119 22.3687 0.0259897C22.3642 0.023938 22.3601 0.0218816 22.356 0.0201719C22.3242 0.00786163 22.2911 0.00136501 22.2572 0.000339155C22.2555 0.000339155 22.2538 0 22.2517 0H6.55513C6.39783 0 6.26994 0.12789 6.26994 0.285187V23.477C6.26994 23.4787 6.2696 23.4804 6.2696 23.4818C6.26892 23.5092 6.27336 23.5358 6.2802 23.5618C6.28122 23.5683 6.28259 23.5738 6.28464 23.5789ZM22.5366 0.974903L23.8315 2.26953L25.1262 3.5645H22.5366V0.974903ZM6.83998 0.571397H21.9665V3.84935C21.9665 4.00665 22.0941 4.13454 22.2517 4.13454H25.5297V22.8017L24.4115 21.6835C24.3 21.5723 24.1195 21.5723 24.008 21.6835L22.6046 23.0869L21.2012 21.6835C21.0898 21.5723 20.9092 21.5723 20.7977 21.6835L19.3944 23.0869L17.991 21.6835C17.9356 21.6277 17.8624 21.6 17.7893 21.6C17.7164 21.6 17.6436 21.6277 17.5879 21.6835L16.1845 23.0869L14.7808 21.6835C14.6693 21.5723 14.4887 21.5723 14.3776 21.6835L12.9746 23.0869L11.5712 21.6835C11.4597 21.5723 11.2792 21.5723 11.1681 21.6835L9.76434 23.0869L8.36097 21.6835C8.24984 21.5723 8.06929 21.5723 7.95781 21.6835L6.83963 22.801V0.571397H6.83998Z" fill="black"/>
<path d="M9.76175 4.13483H16.1836C16.3412 4.13483 16.4688 4.00694 16.4688 3.84964C16.4688 3.69234 16.3412 3.56445 16.1836 3.56445H9.76175C9.60445 3.56445 9.47656 3.69234 9.47656 3.84964C9.47656 4.00694 9.60445 4.13483 9.76175 4.13483Z" fill="black"/>
<path d="M9.47656 17.2709C9.47656 17.2712 9.47656 17.2716 9.47656 17.2719V19.6235C9.47656 19.7812 9.60445 19.9091 9.76175 19.9091H22.6034C22.7607 19.9091 22.8882 19.7812 22.8882 19.6235V5.98309C22.8882 5.82579 22.7607 5.69824 22.6034 5.69824H9.76175C9.60445 5.69824 9.47656 5.82579 9.47656 5.98309V8.33503C9.47656 8.33537 9.47656 8.33605 9.47656 8.33605V10.5683C9.47656 10.5683 9.47656 10.5687 9.47656 10.569C9.47656 10.569 9.47656 10.5693 9.47656 10.5697V12.8023C9.47656 12.8023 9.47656 12.8026 9.47656 12.803C9.47656 12.8033 9.47656 12.8033 9.47656 12.8036V15.0359C9.47656 15.0359 9.47656 15.0362 9.47656 15.0366C9.47656 15.0369 9.47656 15.0369 9.47656 15.0373V17.2709ZM13.6938 6.26827H22.3179V8.05053H13.6938V6.26827ZM13.6938 8.6209H22.3179V10.2842H13.6938V8.6209ZM13.6938 10.8549H22.3179V12.5185H13.6938V10.8549ZM13.6938 13.0885H22.3179V14.7521H13.6938V13.0885ZM13.6938 15.3225H22.3179V16.9861H13.6938V15.3225ZM13.6938 17.5564H22.3179V19.3387H13.6938V17.5564ZM10.0469 6.26827H13.1235V8.05053H10.0469V6.26827ZM10.0469 8.6209H13.1235V10.2842H10.0469V8.6209ZM10.0469 10.8549H13.1235V12.5185H10.0469V10.8549ZM10.0469 13.0885H13.1235V14.7521H10.0469V13.0885ZM10.0469 15.3225H13.1235V16.9861H10.0469V15.3225ZM10.0469 17.5564H13.1235V19.3387H10.0469V17.5564Z" fill="black"/>
</svg>
